<svg xmlns="http://www.w3.org/2000/svg" width="32" height="32">
    <path style="stroke:none;fill-rule:nonzero;fill:#ffffff;fill-opacity:1" d="M26.668 5.332H5.332A2.646 2.646 0 0 0 2.68 8l-.012 16a2.656 2.656 0 0 0 2.664 2.668h21.336A2.656 2.656 0 0 0 29.332 24V8a2.656 2.656 0 0 0-2.664-2.668zM11.332 18.945c0 .575-.48 1.055-1.05 1.055-.337 0-.657-.16-.856-.441l-3.094-4.227v3.84a.82.82 0 0 1-.824.828.844.844 0 0 1-.84-.828v-6.117c0-.575.48-1.055 1.05-1.055h.067c.348 0 .668.16.867.441l3.016 4.227v-3.84c0-.453.371-.828.84-.828.465 0 .824.375.824.828zM18 12.852a.824.824 0 0 1-.828.828h-2.504v1.492h2.504c.469 0 .828.375.828.828v.012a.824.824 0 0 1-.828.828h-2.504v1.48h2.504c.469 0 .828.371.828.828a.823.823 0 0 1-.828.825H13.8a1.131 1.131 0 0 1-1.133-1.133v-5.735c0-.597.504-1.105 1.133-1.105h3.37c.47 0 .829.375.829.828zm9.332 5.816c0 .73-.598 1.332-1.332 1.332h-5.332a1.34 1.34 0 0 1-1.336-1.332v-5.84c0-.453.375-.828.828-.828.453 0 .828.375.828.828v5.184h1.504v-3.864c0-.468.375-.828.828-.828.453 0 .828.371.828.828V18h1.493v-5.172a.82.82 0 0 1 .824-.828c.457 0 .828.375.828.828v5.84zm0 0"/>
</svg>
